<svg width="48" height="48" viewBox="0 0 48 48" fill="none" xmlns="http://www.w3.org/2000/svg">
  <rect width="48" height="48" rx="24" fill="#FB7185" fill-opacity="0.1"/>
  <path d="M24 36C30.6274 36 36 30.6274 36 24C36 17.3726 30.6274 12 24 12C17.3726 12 12 17.3726 12 24C12 30.6274 17.3726 36 24 36Z" stroke="#FB7185" stroke-width="1.5"/>
  <path d="M24 28C26.2091 28 28 26.2091 28 24C28 21.7909 26.2091 20 24 20C21.7909 20 20 21.7909 20 24C20 26.2091 21.7909 28 24 28Z" stroke="#FB7185" stroke-width="1.5"/>
  <path d="M18.5 18.5L16 16" stroke="#FB7185" stroke-width="1.5" stroke-linecap="round"/>
  <path d="M29.5 18.5L32 16" stroke="#FB7185" stroke-width="1.5" stroke-linecap="round"/>
  <path d="M18.5 29.5L16 32" stroke="#FB7185" stroke-width="1.5" stroke-linecap="round"/>
  <path d="M29.5 29.5L32 32" stroke="#FB7185" stroke-width="1.5" stroke-linecap="round"/>
</svg> 
