<svg width="1200" height="600" viewBox="0 0 1200 600" fill="none" xmlns="http://www.w3.org/2000/svg">
  <rect width="1200" height="600" fill="#1F2937"/>
  <rect x="0" y="0" width="1200" height="600" fill="url(#paint0_linear)"/>
  <path d="M600 300C600 300 500 200 400 200C300 200 200 300 200 300C200 300 300 400 400 400C500 400 600 300 600 300Z" fill="#4B5563" stroke="#6B7280" stroke-width="4"/>
  <path d="M1000 300C1000 300 900 200 800 200C700 200 600 300 600 300C600 300 700 400 800 400C900 400 1000 300 1000 300Z" fill="#4B5563" stroke="#6B7280" stroke-width="4"/>
  <path d="M600 300L600 500" stroke="#6B7280" stroke-width="4"/>
  <path d="M400 200L800 200" stroke="#6B7280" stroke-width="4"/>
  <circle cx="400" cy="200" r="20" fill="#9CA3AF"/>
  <circle cx="800" cy="200" r="20" fill="#9CA3AF"/>
  <circle cx="600" cy="300" r="20" fill="#9CA3AF"/>
  <circle cx="600" cy="500" r="20" fill="#9CA3AF"/>
  <defs>
    <linearGradient id="paint0_linear" x1="600" y1="0" x2="600" y2="600" gradientUnits="userSpaceOnUse">
      <stop stop-color="#111827" stop-opacity="0.7"/>
      <stop offset="1" stop-color="#111827" stop-opacity="0.3"/>
    </linearGradient>
  </defs>
</svg> 
