<svg width="600" height="400" viewBox="0 0 600 400" fill="none" xmlns="http://www.w3.org/2000/svg">
  <rect width="600" height="400" fill="#111827"/>
  <path d="M300 116.667C314.167 116.667 325.833 128.333 325.833 142.5C325.833 156.667 314.167 168.333 300 168.333C285.833 168.333 274.167 156.667 274.167 142.5C274.167 128.333 285.833 116.667 300 116.667ZM300 219.167C339.167 219.167 391.667 238.333 391.667 250V270.833H208.333V250C208.333 238.333 260.833 219.167 300 219.167ZM300 95.8333C274.167 95.8333 253.333 116.667 253.333 142.5C253.333 168.333 274.167 189.167 300 189.167C325.833 189.167 346.667 168.333 346.667 142.5C346.667 116.667 325.833 95.8333 300 95.8333ZM300 198.333C253.125 198.333 187.5 221.458 187.5 250V291.667H412.5V250C412.5 221.458 346.875 198.333 300 198.333Z" fill="#9CA3AF"/>
  <text x="300" y="340" text-anchor="middle" fill="#FFFFFF" font-family="Arial, sans-serif" font-size="24">Electronics</text>
</svg> 
