<svg width="600" height="600" viewBox="0 0 600 600" fill="none" xmlns="http://www.w3.org/2000/svg">
  <rect width="600" height="600" fill="#475569"/>
  <path d="M230 315V240C230 206.25 257.5 178.75 291.25 180C323.75 181.25 350 210 350 242.5V315H380V335H350L340 450H335C331.75 444.5 325.5 440 317.5 440H282.5C274.5 440 268.25 444.5 265 450H260L250 335H220V315H230ZM250 240V315H330V242.5C330 220 311.25 201.25 288.75 200C265 198.75 250 217.25 250 240ZM282.5 460H317.5C327.5 460 335 452.5 335 442.5C335 432.5 327.5 425 317.5 425H282.5C272.5 425 265 432.5 265 442.5C265 452.5 272.5 460 282.5 460Z" fill="#94A3B8"/>
</svg> 
