<svg width="600" height="600" viewBox="0 0 600 600" fill="none" xmlns="http://www.w3.org/2000/svg">
  <rect width="600" height="600" fill="#1E293B"/>
  <path d="M300 150C237.5 150 187.5 200 187.5 262.5V387.5C187.5 398.75 196.25 407.5 207.5 407.5H247.5V282.5H207.5V262.5C207.5 211.25 248.75 170 300 170C351.25 170 392.5 211.25 392.5 262.5V282.5H352.5V407.5H392.5C403.75 407.5 412.5 398.75 412.5 387.5V262.5C412.5 200 362.5 150 300 150ZM247.5 427.5H207.5C196.25 427.5 187.5 436.25 187.5 447.5C187.5 458.75 196.25 467.5 207.5 467.5H247.5C258.75 467.5 267.5 458.75 267.5 447.5C267.5 436.25 258.75 427.5 247.5 427.5ZM392.5 427.5H352.5C341.25 427.5 332.5 436.25 332.5 447.5C332.5 458.75 341.25 467.5 352.5 467.5H392.5C403.75 467.5 412.5 458.75 412.5 447.5C412.5 436.25 403.75 427.5 392.5 427.5Z" fill="#94A3B8"/>
</svg> 
