<svg width="600" height="600" viewBox="0 0 600 600" fill="none" xmlns="http://www.w3.org/2000/svg">
  <rect width="600" height="600" fill="#475569"/>
  <rect x="120" y="250" width="360" height="120" rx="10" fill="#1E293B"/>
  <rect x="140" y="270" width="40" height="30" rx="5" fill="#94A3B8"/>
  <rect x="190" y="270" width="40" height="30" rx="5" fill="#94A3B8"/>
  <rect x="240" y="270" width="40" height="30" rx="5" fill="#94A3B8"/>
  <rect x="290" y="270" width="40" height="30" rx="5" fill="#94A3B8"/>
  <rect x="340" y="270" width="40" height="30" rx="5" fill="#94A3B8"/>
  <rect x="390" y="270" width="40" height="30" rx="5" fill="#94A3B8"/>
  <rect x="140" y="310" width="40" height="30" rx="5" fill="#94A3B8"/>
  <rect x="190" y="310" width="40" height="30" rx="5" fill="#94A3B8"/>
  <rect x="240" y="310" width="40" height="30" rx="5" fill="#94A3B8"/>
  <rect x="290" y="310" width="40" height="30" rx="5" fill="#94A3B8"/>
  <rect x="340" y="310" width="40" height="30" rx="5" fill="#94A3B8"/>
  <rect x="390" y="310" width="40" height="30" rx="5" fill="#94A3B8"/>
  <rect x="170" y="350" width="210" height="20" rx="5" fill="#0EA5E9"/>
</svg> 
