<svg width="600" height="600" viewBox="0 0 600 600" fill="none" xmlns="http://www.w3.org/2000/svg">
  <rect width="600" height="600" fill="#475569"/>
  <path d="M450 360V220C450 208.95 441.05 200 430 200H170C158.95 200 150 208.95 150 220V360H450Z" fill="#1E293B"/>
  <path d="M460 380H140C134.477 380 130 384.477 130 390V400C130 411.046 138.954 420 150 420H450C461.046 420 470 411.046 470 400V390C470 384.477 465.523 380 460 380Z" fill="#334155"/>
  <rect x="170" y="220" width="260" height="120" fill="#0EA5E9"/>
  <rect x="275" y="397" width="50" height="5" rx="2.5" fill="#94A3B8"/>
</svg> 
