<svg width="600" height="600" viewBox="0 0 600 600" fill="none" xmlns="http://www.w3.org/2000/svg">
  <rect width="600" height="600" fill="#0F172A"/>
  <path d="M350 175H250C232.5 175 220 187.5 220 205V395C220 412.5 232.5 425 250 425H350C367.5 425 380 412.5 380 395V205C380 187.5 367.5 175 350 175ZM350 355H250V245H350V355Z" fill="#94A3B8"/>
  <path d="M335 155C335 145 327.5 135 317.5 135H282.5C272.5 135 265 145 265 155H235V165H365V155H335Z" fill="#64748B"/>
  <path d="M265 445C265 455 272.5 465 282.5 465H317.5C327.5 465 335 455 335 445H365V435H235V445H265Z" fill="#64748B"/>
  <rect x="280" y="285" width="40" height="40" fill="#0EA5E9"/>
</svg> 
